<?xml version="1.0" encoding="UTF-8"?>
<svg width="800" height="600" viewBox="0 0 800 600" fill="none" xmlns="http://www.w3.org/2000/svg">
    <!-- Background Shape -->
    <path d="M100 100 Q400 0 700 100 Q800 300 700 500 Q400 600 100 500 Q0 300 100 100" fill="#E3F2FD"/>
    
    <!-- Office Scene -->
    <rect x="200" y="150" width="400" height="300" rx="20" fill="#FFFFFF" stroke="#2196F3" stroke-width="4"/>
    
    <!-- People Working -->
    <circle cx="300" cy="250" r="40" fill="#1976D2"/>
    <rect x="280" y="300" width="40" height="60" rx="10" fill="#1976D2"/>
    
    <circle cx="500" cy="250" r="40" fill="#1976D2"/>
    <rect x="480" y="300" width="40" height="60" rx="10" fill="#1976D2"/>
    
    <!-- Desk -->
    <rect x="250" y="370" width="300" height="20" rx="5" fill="#90A4AE"/>
    
    <!-- Computers -->
    <rect x="270" y="220" width="60" height="40" rx="5" fill="#BBDEFB"/>
    <rect x="470" y="220" width="60" height="40" rx="5" fill="#BBDEFB"/>
    
    <!-- Connection Lines -->
    <path d="M330 240 L470 240" stroke="#2196F3" stroke-width="4" stroke-dasharray="8 8"/>
    
    <!-- Code Symbols -->
    <text x="350" y="180" font-family="monospace" font-size="24" fill="#1976D2">&lt;/&gt;</text>
    <text x="420" y="180" font-family="monospace" font-size="24" fill="#1976D2">{}</text>
    
    <!-- Decorative Elements -->
    <circle cx="150" cy="150" r="20" fill="#4CAF50" fill-opacity="0.3"/>
    <circle cx="650" cy="450" r="30" fill="#2196F3" fill-opacity="0.3"/>
    <circle cx="200" cy="500" r="25" fill="#FFC107" fill-opacity="0.3"/>
</svg> 