<?xml version="1.0" encoding="UTF-8"?>
<svg width="800" height="600" viewBox="0 0 800 600" fill="none" xmlns="http://www.w3.org/2000/svg">
    <!-- Background Elements -->
    <circle cx="700" cy="100" r="60" fill="#4CAF50" fill-opacity="0.1"/>
    <circle cx="100" cy="500" r="80" fill="#2196F3" fill-opacity="0.1"/>
    
    <!-- Main Computer Screen -->
    <rect x="200" y="100" width="400" height="300" rx="20" fill="#FFFFFF" stroke="#2196F3" stroke-width="4"/>
    <rect x="220" y="120" width="360" height="240" rx="10" fill="#F5F5F5"/>
    
    <!-- Code Elements -->
    <rect x="240" y="140" width="120" height="10" rx="5" fill="#2196F3"/>
    <rect x="240" y="160" width="200" height="10" rx="5" fill="#90CAF9"/>
    <rect x="240" y="180" width="160" height="10" rx="5" fill="#90CAF9"/>
    <rect x="240" y="200" width="180" height="10" rx="5" fill="#90CAF9"/>
    
    <!-- UI Elements -->
    <rect x="440" y="140" width="120" height="80" rx="10" fill="#E3F2FD"/>
    <rect x="460" y="160" width="80" height="40" rx="5" fill="#BBDEFB"/>
    
    <!-- Developers -->
    <circle cx="280" cy="280" r="30" fill="#1976D2"/>
    <circle cx="500" cy="280" r="30" fill="#1976D2"/>
    
    <!-- Connection Lines -->
    <path d="M320 280 H460" stroke="#2196F3" stroke-width="4" stroke-dasharray="8 8"/>
    
    <!-- Decorative Elements -->
    <circle cx="200" cy="50" r="10" fill="#4CAF50"/>
    <circle cx="600" cy="450" r="15" fill="#2196F3"/>
    <circle cx="150" cy="400" r="12" fill="#FFC107"/>
</svg> 