<?xml version="1.0" encoding="UTF-8"?>
<svg width="800" height="600" viewBox="0 0 800 600" fill="none" xmlns="http://www.w3.org/2000/svg">
    <!-- Isometric Base -->
    <path d="M200 400 L400 300 L600 400 L400 500 Z" fill="#E3F2FD"/>
    
    <!-- Office Walls -->
    <path d="M400 300 L600 400 L600 200 L400 100 Z" fill="#BBDEFB"/>
    <path d="M200 400 L400 300 L400 100 L200 200 Z" fill="#90CAF9"/>
    
    <!-- Floor Pattern -->
    <path d="M250 375 L350 325 M300 350 L400 300 M350 375 L450 325" 
          stroke="#2196F3" stroke-width="1" stroke-dasharray="4 4"/>
    
    <!-- DevOps Pipeline Display -->
    <path d="M300 200 L500 200 L500 150 L300 150 Z" fill="#FFFFFF" stroke="#1976D2"/>
    <circle cx="350" cy="175" r="10" fill="#4CAF50"/>
    <path d="M370 175 L380 175" stroke="#1976D2" stroke-width="2"/>
    <circle cx="400" cy="175" r="10" fill="#FFC107"/>
    <path d="M420 175 L430 175" stroke="#1976D2" stroke-width="2"/>
    <circle cx="450" cy="175" r="10" fill="#2196F3"/>
    
    <!-- Monitors with Code -->
    <g transform="translate(300, 250)">
        <rect width="80" height="60" rx="5" fill="#FFFFFF" stroke="#1976D2"/>
        <rect x="10" y="10" width="40" height="5" rx="2" fill="#90CAF9"/>
        <rect x="10" y="20" width="60" height="5" rx="2" fill="#90CAF9"/>
        <rect x="10" y="30" width="50" height="5" rx="2" fill="#90CAF9"/>
    </g>
    
    <g transform="translate(420, 250)">
        <rect width="80" height="60" rx="5" fill="#FFFFFF" stroke="#1976D2"/>
        <rect x="10" y="10" width="40" height="5" rx="2" fill="#90CAF9"/>
        <rect x="10" y="20" width="60" height="5" rx="2" fill="#90CAF9"/>
        <rect x="10" y="30" width="50" height="5" rx="2" fill="#90CAF9"/>
    </g>
    
    <!-- People -->
    <circle cx="350" cy="350" r="20" fill="#1976D2"/>
    <rect x="340" y="375" width="20" height="30" rx="5" fill="#1976D2"/>
    
    <circle cx="450" cy="350" r="20" fill="#1976D2"/>
    <rect x="440" y="375" width="20" height="30" rx="5" fill="#1976D2"/>
    
    <!-- Server Rack -->
    <rect x="520" cy="300" width="40" height="80" rx="5" fill="#E3F2FD" stroke="#1976D2"/>
    <rect x="525" cy="310" width="30" height="10" rx="2" fill="#BBDEFB"/>
    <rect x="525" cy="330" width="30" height="10" rx="2" fill="#BBDEFB"/>
    <rect x="525" cy="350" width="30" height="10" rx="2" fill="#BBDEFB"/>
    
    <!-- Decorative Elements -->
    <circle cx="200" cy="150" r="15" fill="#4CAF50" fill-opacity="0.3"/>
    <circle cx="600" cy="450" r="20" fill="#2196F3" fill-opacity="0.3"/>
    
    <!-- Connection Lines -->
    <path d="M380 280 L420 280" stroke="#2196F3" stroke-width="2" stroke-dasharray="4 4"/>
    <path d="M500 280 L520 280" stroke="#2196F3" stroke-width="2" stroke-dasharray="4 4"/>
</svg> 