<?xml version="1.0" encoding="UTF-8"?>
<svg width="800" height="600" viewBox="0 0 800 600" fill="none" xmlns="http://www.w3.org/2000/svg">
    <!-- Isometric Base -->
    <path d="M200 400 L400 300 L600 400 L400 500 Z" fill="#E3F2FD"/>
    
    <!-- Office Walls -->
    <path d="M400 300 L600 400 L600 200 L400 100 Z" fill="#BBDEFB"/>
    <path d="M200 400 L400 300 L400 100 L200 200 Z" fill="#90CAF9"/>
    
    <!-- Floor Pattern -->
    <path d="M250 375 L350 325 M300 350 L400 300 M350 375 L450 325" 
          stroke="#2196F3" stroke-width="1" stroke-dasharray="4 4"/>
    
    <!-- Desk -->
    <path d="M300 350 L450 275 L550 325 L400 400 Z" fill="#90A4AE"/>
    
    <!-- Computer Screens -->
    <path d="M350 275 L400 250 L450 275 L400 300 Z" fill="#FFFFFF" stroke="#1976D2"/>
    <path d="M450 225 L500 200 L550 225 L500 250 Z" fill="#FFFFFF" stroke="#1976D2"/>
    
    <!-- People -->
    <!-- Person 1 -->
    <circle cx="375" cy="325" r="15" fill="#1976D2"/>
    <path d="M365 345 L385 345 L375 370 Z" fill="#1976D2"/>
    
    <!-- Person 2 -->
    <circle cx="475" cy="275" r="15" fill="#1976D2"/>
    <path d="M465 295 L485 295 L475 320 Z" fill="#1976D2"/>
    
    <!-- Person 3 -->
    <circle cx="525" cy="325" r="15" fill="#1976D2"/>
    <path d="M515 345 L535 345 L525 370 Z" fill="#1976D2"/>
    
    <!-- Decorative Elements -->
    <circle cx="200" cy="150" r="20" fill="#4CAF50" fill-opacity="0.3"/>
    <circle cx="600" cy="450" r="25" fill="#2196F3" fill-opacity="0.3"/>
    <path d="M150 250 Q200 200 250 250" stroke="#FFC107" stroke-width="2"/>
    
    <!-- Window -->
    <rect x="500" y="150" width="80" height="100" rx="5" fill="#E3F2FD" stroke="#1976D2"/>
    <path d="M500 200 L580 200" stroke="#1976D2"/>
    <path d="M540 150 L540 250" stroke="#1976D2"/>
</svg> 