<?xml version="1.0" encoding="UTF-8"?>
<svg width="800px" height="600px" viewBox="0 0 800 600" version="1.1" xmlns="http://www.w3.org/2000/svg" xmlns:xlink="http://www.w3.org/1999/xlink">
    <defs>
        <linearGradient x1="50%" y1="0%" x2="50%" y2="100%" id="screenGradient">
            <stop stop-color="#F3F4F6" offset="0%"></stop>
            <stop stop-color="#E5E7EB" offset="100%"></stop>
        </linearGradient>
        <linearGradient x1="50%" y1="0%" x2="50%" y2="100%" id="codeGradient">
            <stop stop-color="#60A5FA" offset="0%"></stop>
            <stop stop-color="#3B82F6" offset="100%"></stop>
        </linearGradient>
    </defs>
    <g stroke="none" stroke-width="1" fill="none" fill-rule="evenodd">
        <!-- Background Elements -->
        <circle fill="#EFF6FF" cx="100" cy="100" r="50" opacity="0.5"></circle>
        <circle fill="#DBEAFE" cx="700" cy="500" r="30" opacity="0.5"></circle>
        <circle fill="#BFDBFE" cx="200" cy="400" r="40" opacity="0.5"></circle>
        
        <!-- Main Screen -->
        <rect fill="url(#screenGradient)" x="200" y="100" width="400" height="300" rx="8"></rect>
        <rect fill="#FFFFFF" x="220" y="120" width="360" height="260" rx="4"></rect>
        
        <!-- Code Elements -->
        <g transform="translate(240, 140)">
            <!-- Code Line 1 -->
            <rect fill="url(#codeGradient)" x="0" y="0" width="120" height="12" rx="2" opacity="0.7"></rect>
            <rect fill="#E5E7EB" x="130" y="0" width="80" height="12" rx="2"></rect>
            
            <!-- Code Line 2 -->
            <rect fill="#E5E7EB" x="20" y="24" width="100" height="12" rx="2"></rect>
            <rect fill="url(#codeGradient)" x="130" y="24" width="60" height="12" rx="2" opacity="0.7"></rect>
            
            <!-- Code Line 3 -->
            <rect fill="url(#codeGradient)" x="40" y="48" width="140" height="12" rx="2" opacity="0.7"></rect>
            
            <!-- Code Line 4 -->
            <rect fill="#E5E7EB" x="20" y="72" width="160" height="12" rx="2"></rect>
            
            <!-- Code Line 5 -->
            <rect fill="url(#codeGradient)" x="40" y="96" width="100" height="12" rx="2" opacity="0.7"></rect>
            <rect fill="#E5E7EB" x="150" y="96" width="60" height="12" rx="2"></rect>
        </g>
        
        <!-- UI Elements -->
        <g transform="translate(240, 280)">
            <!-- Button -->
            <rect fill="url(#codeGradient)" x="0" y="0" width="100" height="32" rx="16"></rect>
            
            <!-- Input Field -->
            <rect fill="#F3F4F6" x="0" y="44" width="200" height="32" rx="4" stroke="#E5E7EB" stroke-width="1"></rect>
            
            <!-- Toggle -->
            <rect fill="url(#codeGradient)" x="0" y="88" width="48" height="24" rx="12"></rect>
            <circle fill="#FFFFFF" cx="36" cy="100" r="8"></circle>
        </g>
    </g>
</svg>
