<?xml version="1.0" encoding="UTF-8"?>
<svg width="800px" height="600px" viewBox="0 0 800 600" version="1.1" xmlns="http://www.w3.org/2000/svg" xmlns:xlink="http://www.w3.org/1999/xlink">
    <defs>
        <linearGradient x1="50%" y1="0%" x2="50%" y2="100%" id="checklistGradient">
            <stop stop-color="#F3F4F6" offset="0%"></stop>
            <stop stop-color="#E5E7EB" offset="100%"></stop>
        </linearGradient>
        <linearGradient x1="50%" y1="0%" x2="50%" y2="100%" id="checkGradient">
            <stop stop-color="#60A5FA" offset="0%"></stop>
            <stop stop-color="#3B82F6" offset="100%"></stop>
        </linearGradient>
    </defs>
    <g stroke="none" stroke-width="1" fill="none" fill-rule="evenodd">
        <!-- Background Elements -->
        <circle fill="#EFF6FF" cx="600" cy="100" r="50" opacity="0.5"></circle>
        <circle fill="#DBEAFE" cx="200" cy="500" r="30" opacity="0.5"></circle>
        <circle fill="#BFDBFE" cx="700" cy="400" r="40" opacity="0.5"></circle>
        
        <!-- Main Checklist -->
        <rect fill="url(#checklistGradient)" x="250" y="100" width="300" height="400" rx="8"></rect>
        
        <!-- Checklist Items -->
        <g transform="translate(270, 120)">
            <!-- Item 1 -->
            <rect fill="#FFFFFF" x="0" y="0" width="260" height="60" rx="4"></rect>
            <rect fill="url(#checkGradient)" x="10" y="20" width="20" height="20" rx="4"></rect>
            <path d="M15 30l3 3 7-7" stroke="#FFFFFF" stroke-width="2" stroke-linecap="round" stroke-linejoin="round"></path>
            <rect fill="#E5E7EB" x="40" y="15" width="120" height="8" rx="4"></rect>
            <rect fill="#E5E7EB" x="40" y="35" width="80" height="8" rx="4"></rect>
            
            <!-- Item 2 -->
            <rect fill="#FFFFFF" x="0" y="70" width="260" height="60" rx="4"></rect>
            <rect fill="url(#checkGradient)" x="10" y="90" width="20" height="20" rx="4"></rect>
            <path d="M15 100l3 3 7-7" stroke="#FFFFFF" stroke-width="2" stroke-linecap="round" stroke-linejoin="round"></path>
            <rect fill="#E5E7EB" x="40" y="85" width="140" height="8" rx="4"></rect>
            <rect fill="#E5E7EB" x="40" y="105" width="100" height="8" rx="4"></rect>
            
            <!-- Item 3 -->
            <rect fill="#FFFFFF" x="0" y="140" width="260" height="60" rx="4"></rect>
            <rect fill="url(#checkGradient)" x="10" y="160" width="20" height="20" rx="4"></rect>
            <path d="M15 170l3 3 7-7" stroke="#FFFFFF" stroke-width="2" stroke-linecap="round" stroke-linejoin="round"></path>
            <rect fill="#E5E7EB" x="40" y="155" width="160" height="8" rx="4"></rect>
            <rect fill="#E5E7EB" x="40" y="175" width="120" height="8" rx="4"></rect>
            
            <!-- Item 4 -->
            <rect fill="#FFFFFF" x="0" y="210" width="260" height="60" rx="4"></rect>
            <rect fill="url(#checkGradient)" x="10" y="230" width="20" height="20" rx="4"></rect>
            <path d="M15 240l3 3 7-7" stroke="#FFFFFF" stroke-width="2" stroke-linecap="round" stroke-linejoin="round"></path>
            <rect fill="#E5E7EB" x="40" y="225" width="130" height="8" rx="4"></rect>
            <rect fill="#E5E7EB" x="40" y="245" width="90" height="8" rx="4"></rect>
        </g>
        
        <!-- Progress Bar -->
        <rect fill="#E5E7EB" x="270" y="460" width="260" height="8" rx="4"></rect>
        <rect fill="url(#checkGradient)" x="270" y="460" width="195" height="8" rx="4"></rect>
        
        <!-- Decorative Elements -->
        <circle fill="url(#checkGradient)" cx="600" cy="250" r="15" opacity="0.8"></circle>
        <circle fill="url(#checkGradient)" cx="200" cy="350" r="10" opacity="0.6"></circle>
        <circle fill="url(#checkGradient)" cx="650" cy="400" r="12" opacity="0.7"></circle>
    </g>
</svg>
